<svg width="48" height="28" viewBox="0 0 48 28" fill="none" xmlns="http://www.w3.org/2000/svg">
  <path d="M43.1501 12.2819C42.5746 12.2861 42.0045 12.3959 41.4673 12.6061L35.727 7.82142C35.8682 7.29981 35.9687 6.7587 35.9687 6.18834C35.9687 2.81004 33.3021 0.0947266 29.9843 0.0947266C26.6665 0.0947266 23.9998 2.81004 23.9998 6.18834C23.9998 7.15356 24.2392 8.05298 24.627 8.86221L17.6635 17.2421C17.3848 17.189 17.102 17.1605 16.8185 17.1568C16.39 17.1568 15.9855 17.23 15.5929 17.3372L9.45761 11.09C9.56533 10.6927 9.63714 10.2808 9.63714 9.8445C9.63714 7.14381 7.50189 4.96961 4.84958 4.96961C2.19727 4.96961 0.0620117 7.14381 0.0620117 9.8445C0.0620117 12.5452 2.19727 14.7194 4.84958 14.7194C5.27806 14.7194 5.68261 14.6463 6.07519 14.539L12.2105 20.7862C12.0954 21.1911 12.035 21.6102 12.0309 22.0317C12.0309 24.7324 14.1662 26.9066 16.8185 26.9066C19.4708 26.9066 21.6061 24.7324 21.6061 22.0317C21.6061 21.454 21.4912 20.9105 21.3116 20.3962L28.2847 12.0065C28.8281 12.1674 29.3906 12.2819 29.9843 12.2819C30.929 12.2766 31.8588 12.0418 32.6964 11.597L38.4391 16.3817C38.3941 16.6377 38.3685 16.8968 38.3625 17.1568C38.3625 19.8575 40.4978 22.0317 43.1501 22.0317C45.8024 22.0317 47.9377 19.8575 47.9377 17.1568C47.9377 14.4561 45.8024 12.2819 43.1501 12.2819Z" fill="#FFFFFF" />
</svg>