<svg width="20" height="21" viewBox="0 0 20 21" fill="none" xmlns="http://www.w3.org/2000/svg">
  <path d="M17.3666 4.34123C16.941 3.91541 16.4356 3.57761 15.8794 3.34714C15.3232 3.11667 14.727 2.99805 14.1249 2.99805C13.5229 2.99805 12.9267 3.11667 12.3705 3.34714C11.8143 3.57761 11.3089 3.91541 10.8833 4.34123L9.99994 5.22457L9.1166 4.34123C8.25686 3.48149 7.0908 2.99849 5.87494 2.99849C4.65908 2.99849 3.49301 3.48149 2.63327 4.34123C1.77353 5.20098 1.29053 6.36704 1.29053 7.5829C1.29053 8.79876 1.77353 9.96482 2.63327 10.8246L3.5166 11.7079L9.99994 18.1912L16.4833 11.7079L17.3666 10.8246C17.7924 10.3989 18.1302 9.89358 18.3607 9.33736C18.5912 8.78115 18.7098 8.18497 18.7098 7.5829C18.7098 6.98083 18.5912 6.38465 18.3607 5.82844C18.1302 5.27222 17.7924 4.76686 17.3666 4.34123Z" fill="#EB5757" />
</svg>